<?xml version="1.0" encoding="UTF-8" standalone="no"?>
<svg
   xmlns:dc="http://purl.org/dc/elements/1.1/"
   xmlns:cc="http://creativecommons.org/ns#"
   xmlns:rdf="http://www.w3.org/1999/02/22-rdf-syntax-ns#"
   xmlns:svg="http://www.w3.org/2000/svg"
   xmlns="http://www.w3.org/2000/svg"
   xmlns:sodipodi="http://sodipodi.sourceforge.net/DTD/sodipodi-0.dtd"
   xmlns:inkscape="http://www.inkscape.org/namespaces/inkscape"
   version="1.1"
   id="Layer_1"
   x="0px"
   y="0px"
   width="149.167px"
   height="172.243px"
   viewBox="0 0 149.167 172.243"
   enable-background="new 0 0 149.167 172.243"
   xml:space="preserve"
   inkscape:version="0.91 r"
   sodipodi:docname="logo.svg"
   inkscape:export-filename="/Users/mvecera/work/QuConsult/quconsult/images/logo.png"
   inkscape:export-xdpi="299.94531"
   inkscape:export-ydpi="299.94531"><metadata
     id="metadata4210"><rdf:RDF><cc:Work
         rdf:about=""><dc:format>image/svg+xml</dc:format><dc:type
           rdf:resource="http://purl.org/dc/dcmitype/StillImage" /><dc:title /></cc:Work></rdf:RDF></metadata><defs
     id="defs4208" /><sodipodi:namedview
     pagecolor="#ffffff"
     bordercolor="#666666"
     borderopacity="1"
     objecttolerance="10"
     gridtolerance="10"
     guidetolerance="10"
     inkscape:pageopacity="0"
     inkscape:pageshadow="2"
     inkscape:window-width="2560"
     inkscape:window-height="1387"
     id="namedview4206"
     showgrid="false"
     inkscape:zoom="3.7853499"
     inkscape:cx="11.973704"
     inkscape:cy="91.458971"
     inkscape:window-x="0"
     inkscape:window-y="0"
     inkscape:window-maximized="1"
     inkscape:current-layer="layer1" /><g
     inkscape:groupmode="layer"
     id="layer1"
     inkscape:label="Layer 1"><ellipse
       style="opacity:1;fill:#585858;fill-opacity:1;stroke:#585858;stroke-width:9.5379076;stroke-miterlimit:4;stroke-dasharray:none;stroke-dashoffset:0;stroke-opacity:1"
       id="path4215"
       cx="74.583504"
       cy="86.121498"
       rx="69.716965"
       ry="69.044495" /><g
       style="font-style:normal;font-weight:normal;font-size:40px;line-height:125%;font-family:sans-serif;letter-spacing:0px;word-spacing:0px;fill:#ffffff;fill-opacity:1;stroke:none;stroke-width:1px;stroke-linecap:butt;stroke-linejoin:miter;stroke-opacity:1"
       id="text4814"><path
         d="m 75.239325,113.06648 c -10.53,0 -17.01,-9.72 -17.01,-26.999999 0,-15.93 6.48,-25.11 17.01,-25.11 10.53,0 17.01,9.18 17.01,25.11 0,17.279999 -6.48,26.999999 -17.01,26.999999 z m 29.700005,42.66 c 7.425,0 13.23,-1.35 16.74,-3.24 l -4.05,-16.74 c -2.7,0.945 -6.21,1.62 -9.99,1.62 -6.615,0 -14.445005,-1.89 -18.495005,-7.56 16.470005,-5.4 26.865005,-20.79 26.865005,-43.739999 0,-28.755 -16.470005,-45.09 -40.770005,-45.09 -24.3,0 -40.77,16.2 -40.77,45.09 0,24.434999 11.88,40.499999 30.24,44.684999 6.75,14.58 20.52,24.975 40.230005,24.975 z"
         style="font-style:normal;font-variant:normal;font-weight:900;font-stretch:normal;font-size:135px;font-family:'Source Sans Pro';-inkscape-font-specification:'Source Sans Pro Heavy';fill:#ffffff;fill-opacity:1"
         id="path4137" /></g></g></svg>